<svg width="1024" height="753" viewBox="0 0 1024 753" fill="none" xmlns="http://www.w3.org/2000/svg">
<g clip-path="url(#clip0_122_130)">
<rect width="1024" height="753" fill="#121214"/>
<g opacity="0.2" filter="url(#filter0_f_122_130)">
<ellipse cx="439.5" cy="42" rx="670.5" ry="350" fill="#35875D"/>
</g>
<path d="M-39.9651 278C-38.4698 278 -37.3378 278.63 -36.5692 279.891C-35.7866 281.138 -35.3953 282.953 -35.3953 285.336C-35.3953 287.719 -35.7866 289.541 -36.5692 290.802C-37.3378 292.063 -38.4698 292.693 -39.9651 292.693C-41.4464 292.693 -42.5784 292.063 -43.361 290.802C-44.1436 289.541 -44.5349 287.719 -44.5349 285.336C-44.5349 282.967 -44.1436 281.152 -43.361 279.891C-42.5784 278.63 -41.4464 278 -39.9651 278ZM-43.0466 285.336C-43.0466 287.026 -42.8928 288.35 -42.5854 289.306L-37.9317 280.099C-38.4209 279.448 -39.0987 279.122 -39.9651 279.122C-40.9294 279.122 -41.684 279.635 -42.229 280.66C-42.7741 281.672 -43.0466 283.23 -43.0466 285.336ZM-39.9651 291.55C-38.9869 291.55 -38.2252 291.044 -37.6802 290.033C-37.1352 289.008 -36.8627 287.442 -36.8627 285.336C-36.8627 283.549 -37.0373 282.163 -37.3867 281.18L-42.0404 290.469C-41.5373 291.19 -40.8455 291.55 -39.9651 291.55Z" fill="url(#paint0_linear_122_130)" fill-opacity="0.6"/>
<path d="M-38.7074 315.135H-35.6259V316.236H-43.6126V315.135H-40.0489V303.455L-43.4449 305.471L-44.0318 304.536L-39.8393 301.959H-38.7074V315.135Z" fill="url(#paint1_linear_122_130)" fill-opacity="0.6"/>
<path d="M-39.9651 325.502C-38.4698 325.502 -37.3378 326.133 -36.5692 327.393C-35.7866 328.64 -35.3953 330.455 -35.3953 332.838C-35.3953 335.221 -35.7866 337.043 -36.5692 338.304C-37.3378 339.565 -38.4698 340.195 -39.9651 340.195C-41.4464 340.195 -42.5784 339.565 -43.361 338.304C-44.1436 337.043 -44.5349 335.221 -44.5349 332.838C-44.5349 330.469 -44.1436 328.654 -43.361 327.393C-42.5784 326.133 -41.4464 325.502 -39.9651 325.502ZM-43.0466 332.838C-43.0466 334.529 -42.8928 335.852 -42.5854 336.808L-37.9317 327.601C-38.4209 326.95 -39.0987 326.624 -39.9651 326.624C-40.9294 326.624 -41.684 327.137 -42.229 328.162C-42.7741 329.174 -43.0466 330.732 -43.0466 332.838ZM-39.9651 339.052C-38.9869 339.052 -38.2252 338.546 -37.6802 337.535C-37.1352 336.51 -36.8627 334.944 -36.8627 332.838C-36.8627 331.051 -37.0373 329.665 -37.3867 328.682L-42.0404 337.971C-41.5373 338.692 -40.8455 339.052 -39.9651 339.052Z" fill="url(#paint2_linear_122_130)" fill-opacity="0.6"/>
<path d="M-38.7074 362.637H-35.6259V363.738H-43.6126V362.637H-40.0489V350.957L-43.4449 352.973L-44.0318 352.038L-39.8393 349.461H-38.7074V362.637Z" fill="url(#paint3_linear_122_130)" fill-opacity="0.6"/>
<path d="M-38.7074 386.388H-35.6259V387.489H-43.6126V386.388H-40.0489V374.708L-43.4449 376.724L-44.0318 375.789L-39.8393 373.212H-38.7074V386.388Z" fill="url(#paint4_linear_122_130)" fill-opacity="0.6"/>
<path d="M-39.9651 396.755C-38.4698 396.755 -37.3378 397.386 -36.5692 398.646C-35.7866 399.893 -35.3953 401.708 -35.3953 404.091C-35.3953 406.474 -35.7866 408.296 -36.5692 409.557C-37.3378 410.818 -38.4698 411.448 -39.9651 411.448C-41.4464 411.448 -42.5784 410.818 -43.361 409.557C-44.1436 408.296 -44.5349 406.474 -44.5349 404.091C-44.5349 401.722 -44.1436 399.907 -43.361 398.646C-42.5784 397.386 -41.4464 396.755 -39.9651 396.755ZM-43.0466 404.091C-43.0466 405.782 -42.8928 407.105 -42.5854 408.061L-37.9317 398.854C-38.4209 398.203 -39.0987 397.878 -39.9651 397.878C-40.9294 397.878 -41.684 398.39 -42.229 399.415C-42.7741 400.427 -43.0466 401.985 -43.0466 404.091ZM-39.9651 410.305C-38.9869 410.305 -38.2252 409.8 -37.6802 408.788C-37.1352 407.763 -36.8627 406.197 -36.8627 404.091C-36.8627 402.304 -37.0373 400.919 -37.3867 399.935L-42.0404 409.225C-41.5373 409.945 -40.8455 410.305 -39.9651 410.305Z" fill="url(#paint5_linear_122_130)" fill-opacity="0.6"/>
<path d="M-38.7074 433.89H-35.6259V434.992H-43.6126V433.89H-40.0489V422.21L-43.4449 424.226L-44.0318 423.291L-39.8393 420.714H-38.7074V433.89Z" fill="url(#paint6_linear_122_130)" fill-opacity="0.6"/>
<path d="M-39.9651 444.257C-38.4698 444.257 -37.3378 444.888 -36.5692 446.149C-35.7866 447.396 -35.3953 449.211 -35.3953 451.594C-35.3953 453.977 -35.7866 455.798 -36.5692 457.059C-37.3378 458.32 -38.4698 458.95 -39.9651 458.95C-41.4464 458.95 -42.5784 458.32 -43.361 457.059C-44.1436 455.798 -44.5349 453.977 -44.5349 451.594C-44.5349 449.224 -44.1436 447.409 -43.361 446.149C-42.5784 444.888 -41.4464 444.257 -39.9651 444.257ZM-43.0466 451.594C-43.0466 453.284 -42.8928 454.607 -42.5854 455.563L-37.9317 446.356C-38.4209 445.705 -39.0987 445.38 -39.9651 445.38C-40.9294 445.38 -41.684 445.892 -42.229 446.918C-42.7741 447.929 -43.0466 449.488 -43.0466 451.594ZM-39.9651 457.807C-38.9869 457.807 -38.2252 457.302 -37.6802 456.29C-37.1352 455.265 -36.8627 453.699 -36.8627 451.594C-36.8627 449.806 -37.0373 448.421 -37.3867 447.437L-42.0404 456.727C-41.5373 457.447 -40.8455 457.807 -39.9651 457.807Z" fill="url(#paint7_linear_122_130)" fill-opacity="0.6"/>
<path d="M-39.9651 468.008C-38.4698 468.008 -37.3378 468.639 -36.5692 469.9C-35.7866 471.147 -35.3953 472.962 -35.3953 475.345C-35.3953 477.728 -35.7866 479.549 -36.5692 480.81C-37.3378 482.071 -38.4698 482.701 -39.9651 482.701C-41.4464 482.701 -42.5784 482.071 -43.361 480.81C-44.1436 479.549 -44.5349 477.728 -44.5349 475.345C-44.5349 472.975 -44.1436 471.16 -43.361 469.9C-42.5784 468.639 -41.4464 468.008 -39.9651 468.008ZM-43.0466 475.345C-43.0466 477.035 -42.8928 478.358 -42.5854 479.314L-37.9317 470.107C-38.4209 469.456 -39.0987 469.131 -39.9651 469.131C-40.9294 469.131 -41.684 469.643 -42.229 470.669C-42.7741 471.68 -43.0466 473.239 -43.0466 475.345ZM-39.9651 481.558C-38.9869 481.558 -38.2252 481.053 -37.6802 480.041C-37.1352 479.016 -36.8627 477.451 -36.8627 475.345C-36.8627 473.557 -37.0373 472.172 -37.3867 471.188L-42.0404 480.478C-41.5373 481.198 -40.8455 481.558 -39.9651 481.558Z" fill="url(#paint8_linear_122_130)" fill-opacity="0.6"/>
<path d="M-38.7074 505.143H-35.6259V506.245H-43.6126V505.143H-40.0489V493.464L-43.4449 495.48L-44.0318 494.544L-39.8393 491.967H-38.7074V505.143Z" fill="url(#paint9_linear_122_130)" fill-opacity="0.6"/>
<path d="M-39.9651 515.511C-38.4698 515.511 -37.3378 516.141 -36.5692 517.402C-35.7866 518.649 -35.3953 520.464 -35.3953 522.847C-35.3953 525.23 -35.7866 527.052 -36.5692 528.312C-37.3378 529.573 -38.4698 530.204 -39.9651 530.204C-41.4464 530.204 -42.5784 529.573 -43.361 528.312C-44.1436 527.052 -44.5349 525.23 -44.5349 522.847C-44.5349 520.478 -44.1436 518.663 -43.361 517.402C-42.5784 516.141 -41.4464 515.511 -39.9651 515.511ZM-43.0466 522.847C-43.0466 524.537 -42.8928 525.86 -42.5854 526.816L-37.9317 517.61C-38.4209 516.958 -39.0987 516.633 -39.9651 516.633C-40.9294 516.633 -41.684 517.145 -42.229 518.171C-42.7741 519.182 -43.0466 520.741 -43.0466 522.847ZM-39.9651 529.061C-38.9869 529.061 -38.2252 528.555 -37.6802 527.543C-37.1352 526.518 -36.8627 524.953 -36.8627 522.847C-36.8627 521.059 -37.0373 519.674 -37.3867 518.69L-42.0404 527.98C-41.5373 528.7 -40.8455 529.061 -39.9651 529.061Z" fill="url(#paint10_linear_122_130)" fill-opacity="0.6"/>
<path d="M-38.7074 552.645H-35.6259V553.747H-43.6126V552.645H-40.0489V540.966L-43.4449 542.982L-44.0318 542.046L-39.8393 539.469H-38.7074V552.645Z" fill="url(#paint11_linear_122_130)" fill-opacity="0.6"/>
<path d="M-38.7074 576.396H-35.6259V577.498H-43.6126V576.396H-40.0489V564.717L-43.4449 566.733L-44.0318 565.798L-39.8393 563.221H-38.7074V576.396Z" fill="url(#paint12_linear_122_130)" fill-opacity="0.6"/>
<path d="M-1.0349 325.502C0.460418 325.502 1.59239 326.133 2.36101 327.393C3.14361 328.64 3.5349 330.455 3.5349 332.838C3.5349 335.221 3.14361 337.043 2.36101 338.304C1.59239 339.565 0.460418 340.195 -1.0349 340.195C-2.51624 340.195 -3.64822 339.565 -4.43081 338.304C-5.21341 337.043 -5.60471 335.221 -5.60471 332.838C-5.60471 330.469 -5.21341 328.654 -4.43081 327.393C-3.64822 326.133 -2.51624 325.502 -1.0349 325.502ZM-4.11638 332.838C-4.11638 334.529 -3.96265 335.852 -3.6552 336.808L0.998452 327.601C0.509329 326.95 -0.168454 326.624 -1.0349 326.624C-1.99917 326.624 -2.75382 327.137 -3.29884 328.162C-3.84387 329.174 -4.11638 330.732 -4.11638 332.838ZM-1.0349 339.052C-0.0566545 339.052 0.704974 338.546 1.25 337.535C1.79502 336.51 2.06754 334.944 2.06754 332.838C2.06754 331.051 1.89284 329.665 1.54347 328.682L-3.11018 337.971C-2.60708 338.692 -1.91532 339.052 -1.0349 339.052Z" fill="url(#paint13_linear_122_130)" fill-opacity="0.6"/>
<path d="M0.222837 362.637H3.30432V363.738H-4.68236V362.637H-1.11875V350.957L-4.51466 352.973L-5.10161 352.038L-0.909128 349.461H0.222837V362.637Z" fill="url(#paint14_linear_122_130)" fill-opacity="0.6"/>
<path d="M-1.0349 373.004C0.460418 373.004 1.59239 373.635 2.36101 374.895C3.14361 376.142 3.5349 377.957 3.5349 380.34C3.5349 382.723 3.14361 384.545 2.36101 385.806C1.59239 387.067 0.460418 387.697 -1.0349 387.697C-2.51624 387.697 -3.64822 387.067 -4.43081 385.806C-5.21341 384.545 -5.60471 382.723 -5.60471 380.34C-5.60471 377.971 -5.21341 376.156 -4.43081 374.895C-3.64822 373.635 -2.51624 373.004 -1.0349 373.004ZM-4.11638 380.34C-4.11638 382.031 -3.96265 383.354 -3.6552 384.31L0.998452 375.103C0.509329 374.452 -0.168454 374.126 -1.0349 374.126C-1.99917 374.126 -2.75382 374.639 -3.29884 375.664C-3.84387 376.676 -4.11638 378.234 -4.11638 380.34ZM-1.0349 386.554C-0.0566545 386.554 0.704974 386.049 1.25 385.037C1.79502 384.012 2.06754 382.446 2.06754 380.34C2.06754 378.553 1.89284 377.168 1.54347 376.184L-3.11018 385.474C-2.60708 386.194 -1.91532 386.554 -1.0349 386.554Z" fill="url(#paint15_linear_122_130)" fill-opacity="0.6"/>
<path d="M-1.0349 396.755C0.460418 396.755 1.59239 397.386 2.36101 398.646C3.14361 399.893 3.5349 401.708 3.5349 404.091C3.5349 406.474 3.14361 408.296 2.36101 409.557C1.59239 410.818 0.460418 411.448 -1.0349 411.448C-2.51624 411.448 -3.64822 410.818 -4.43081 409.557C-5.21341 408.296 -5.60471 406.474 -5.60471 404.091C-5.60471 401.722 -5.21341 399.907 -4.43081 398.646C-3.64822 397.386 -2.51624 396.755 -1.0349 396.755ZM-4.11638 404.091C-4.11638 405.782 -3.96265 407.105 -3.6552 408.061L0.998452 398.854C0.509329 398.203 -0.168454 397.878 -1.0349 397.878C-1.99917 397.878 -2.75382 398.39 -3.29884 399.415C-3.84387 400.427 -4.11638 401.985 -4.11638 404.091ZM-1.0349 410.305C-0.0566545 410.305 0.704974 409.8 1.25 408.788C1.79502 407.763 2.06754 406.197 2.06754 404.091C2.06754 402.304 1.89284 400.919 1.54347 399.935L-3.11018 409.225C-2.60708 409.945 -1.91532 410.305 -1.0349 410.305Z" fill="url(#paint16_linear_122_130)" fill-opacity="0.6"/>
<path d="M0.222837 433.89H3.30432V434.992H-4.68236V433.89H-1.11875V422.21L-4.51466 424.226L-5.10161 423.291L-0.909128 420.714H0.222837V433.89Z" fill="url(#paint17_linear_122_130)" fill-opacity="0.6"/>
<path d="M-1.0349 444.257C0.460418 444.257 1.59239 444.888 2.36101 446.149C3.14361 447.396 3.5349 449.211 3.5349 451.594C3.5349 453.977 3.14361 455.798 2.36101 457.059C1.59239 458.32 0.460418 458.95 -1.0349 458.95C-2.51624 458.95 -3.64822 458.32 -4.43081 457.059C-5.21341 455.798 -5.60471 453.977 -5.60471 451.594C-5.60471 449.224 -5.21341 447.409 -4.43081 446.149C-3.64822 444.888 -2.51624 444.257 -1.0349 444.257ZM-4.11638 451.594C-4.11638 453.284 -3.96265 454.607 -3.6552 455.563L0.998452 446.356C0.509329 445.705 -0.168454 445.38 -1.0349 445.38C-1.99917 445.38 -2.75382 445.892 -3.29884 446.918C-3.84387 447.929 -4.11638 449.488 -4.11638 451.594ZM-1.0349 457.807C-0.0566545 457.807 0.704974 457.302 1.25 456.29C1.79502 455.265 2.06754 453.699 2.06754 451.594C2.06754 449.806 1.89284 448.421 1.54347 447.437L-3.11018 456.727C-2.60708 457.447 -1.91532 457.807 -1.0349 457.807Z" fill="url(#paint18_linear_122_130)" fill-opacity="0.6"/>
<path d="M0.222837 481.392H3.30432V482.494H-4.68236V481.392H-1.11875V469.713L-4.51466 471.728L-5.10161 470.793L-0.909128 468.216H0.222837V481.392Z" fill="url(#paint19_linear_122_130)" fill-opacity="0.6"/>
<path d="M-1.0349 491.76C0.460418 491.76 1.59239 492.39 2.36101 493.651C3.14361 494.898 3.5349 496.713 3.5349 499.096C3.5349 501.479 3.14361 503.301 2.36101 504.561C1.59239 505.822 0.460418 506.453 -1.0349 506.453C-2.51624 506.453 -3.64822 505.822 -4.43081 504.561C-5.21341 503.301 -5.60471 501.479 -5.60471 499.096C-5.60471 496.726 -5.21341 494.911 -4.43081 493.651C-3.64822 492.39 -2.51624 491.76 -1.0349 491.76ZM-4.11638 499.096C-4.11638 500.786 -3.96265 502.109 -3.6552 503.065L0.998452 493.859C0.509329 493.207 -0.168454 492.882 -1.0349 492.882C-1.99917 492.882 -2.75382 493.394 -3.29884 494.42C-3.84387 495.431 -4.11638 496.99 -4.11638 499.096ZM-1.0349 505.31C-0.0566545 505.31 0.704974 504.804 1.25 503.792C1.79502 502.767 2.06754 501.202 2.06754 499.096C2.06754 497.308 1.89284 495.923 1.54347 494.939L-3.11018 504.229C-2.60708 504.949 -1.91532 505.31 -1.0349 505.31Z" fill="url(#paint20_linear_122_130)" fill-opacity="0.6"/>
<path d="M-1.0349 515.511C0.460418 515.511 1.59239 516.141 2.36101 517.402C3.14361 518.649 3.5349 520.464 3.5349 522.847C3.5349 525.23 3.14361 527.052 2.36101 528.312C1.59239 529.573 0.460418 530.204 -1.0349 530.204C-2.51624 530.204 -3.64822 529.573 -4.43081 528.312C-5.21341 527.052 -5.60471 525.23 -5.60471 522.847C-5.60471 520.478 -5.21341 518.663 -4.43081 517.402C-3.64822 516.141 -2.51624 515.511 -1.0349 515.511ZM-4.11638 522.847C-4.11638 524.537 -3.96265 525.86 -3.6552 526.816L0.998452 517.61C0.509329 516.958 -0.168454 516.633 -1.0349 516.633C-1.99917 516.633 -2.75382 517.145 -3.29884 518.171C-3.84387 519.182 -4.11638 520.741 -4.11638 522.847ZM-1.0349 529.061C-0.0566545 529.061 0.704974 528.555 1.25 527.543C1.79502 526.518 2.06754 524.953 2.06754 522.847C2.06754 521.059 1.89284 519.674 1.54347 518.69L-3.11018 527.98C-2.60708 528.7 -1.91532 529.061 -1.0349 529.061Z" fill="url(#paint21_linear_122_130)" fill-opacity="0.6"/>
<path d="M0.222837 552.645H3.30432V553.747H-4.68236V552.645H-1.11875V540.966L-4.51466 542.982L-5.10161 542.046L-0.909128 539.469H0.222837V552.645Z" fill="url(#paint22_linear_122_130)" fill-opacity="0.6"/>
<path d="M-1.0349 563.013C0.460418 563.013 1.59239 563.643 2.36101 564.904C3.14361 566.151 3.5349 567.966 3.5349 570.349C3.5349 572.732 3.14361 574.554 2.36101 575.815C1.59239 577.075 0.460418 577.706 -1.0349 577.706C-2.51624 577.706 -3.64822 577.075 -4.43081 575.815C-5.21341 574.554 -5.60471 572.732 -5.60471 570.349C-5.60471 567.98 -5.21341 566.165 -4.43081 564.904C-3.64822 563.643 -2.51624 563.013 -1.0349 563.013ZM-4.11638 570.349C-4.11638 572.039 -3.96265 573.362 -3.6552 574.318L0.998452 565.112C0.509329 564.461 -0.168454 564.135 -1.0349 564.135C-1.99917 564.135 -2.75382 564.648 -3.29884 565.673C-3.84387 566.684 -4.11638 568.243 -4.11638 570.349ZM-1.0349 576.563C-0.0566545 576.563 0.704974 576.057 1.25 575.046C1.79502 574.02 2.06754 572.455 2.06754 570.349C2.06754 568.562 1.89284 567.176 1.54347 566.192L-3.11018 575.482C-2.60708 576.202 -1.91532 576.563 -1.0349 576.563Z" fill="url(#paint23_linear_122_130)" fill-opacity="0.6"/>
<path d="M0.222837 600.148H3.30432V601.249H-4.68236V600.148H-1.11875V588.468L-4.51466 590.484L-5.10161 589.549L-0.909128 586.972H0.222837V600.148Z" fill="url(#paint24_linear_122_130)" fill-opacity="0.6"/>
<path d="M0.222837 623.899H3.30432V625H-4.68236V623.899H-1.11875V612.219L-4.51466 614.235L-5.10161 613.3L-0.909128 610.723H0.222837V623.899Z" fill="url(#paint25_linear_122_130)" fill-opacity="0.6"/>
<path d="M-59.4302 349.253C-57.9349 349.253 -56.8029 349.884 -56.0343 351.144C-55.2517 352.391 -54.8604 354.206 -54.8604 356.589C-54.8604 358.972 -55.2517 360.794 -56.0343 362.055C-56.8029 363.316 -57.9349 363.946 -59.4302 363.946C-60.9115 363.946 -62.0435 363.316 -62.8261 362.055C-63.6087 360.794 -64 358.972 -64 356.589C-64 354.22 -63.6087 352.405 -62.8261 351.144C-62.0435 349.884 -60.9115 349.253 -59.4302 349.253ZM-62.5117 356.589C-62.5117 358.28 -62.3579 359.603 -62.0505 360.559L-57.3968 351.352C-57.886 350.701 -58.5637 350.375 -59.4302 350.375C-60.3945 350.375 -61.1491 350.888 -61.6941 351.913C-62.2392 352.925 -62.5117 354.483 -62.5117 356.589ZM-59.4302 362.803C-58.4519 362.803 -57.6903 362.297 -57.1453 361.286C-56.6003 360.261 -56.3278 358.695 -56.3278 356.589C-56.3278 354.802 -56.5024 353.417 -56.8518 352.433L-61.5055 361.722C-61.0024 362.443 -60.3106 362.803 -59.4302 362.803Z" fill="url(#paint26_linear_122_130)" fill-opacity="0.6"/>
<path d="M-59.4302 373.004C-57.9349 373.004 -56.8029 373.635 -56.0343 374.895C-55.2517 376.142 -54.8604 377.957 -54.8604 380.34C-54.8604 382.723 -55.2517 384.545 -56.0343 385.806C-56.8029 387.067 -57.9349 387.697 -59.4302 387.697C-60.9115 387.697 -62.0435 387.067 -62.8261 385.806C-63.6087 384.545 -64 382.723 -64 380.34C-64 377.971 -63.6087 376.156 -62.8261 374.895C-62.0435 373.635 -60.9115 373.004 -59.4302 373.004ZM-62.5117 380.34C-62.5117 382.031 -62.3579 383.354 -62.0505 384.31L-57.3968 375.103C-57.886 374.452 -58.5637 374.126 -59.4302 374.126C-60.3945 374.126 -61.1491 374.639 -61.6941 375.664C-62.2392 376.676 -62.5117 378.234 -62.5117 380.34ZM-59.4302 386.554C-58.4519 386.554 -57.6903 386.049 -57.1453 385.037C-56.6003 384.012 -56.3278 382.446 -56.3278 380.34C-56.3278 378.553 -56.5024 377.168 -56.8518 376.184L-61.5055 385.474C-61.0024 386.194 -60.3106 386.554 -59.4302 386.554Z" fill="url(#paint27_linear_122_130)" fill-opacity="0.6"/>
<path d="M-58.1724 410.139H-55.091V411.24H-63.0777V410.139H-59.514V398.459L-62.91 400.475L-63.4969 399.54L-59.3044 396.963H-58.1724V410.139Z" fill="url(#paint28_linear_122_130)" fill-opacity="0.6"/>
<path d="M-59.4302 420.506C-57.9349 420.506 -56.8029 421.137 -56.0343 422.398C-55.2517 423.644 -54.8604 425.459 -54.8604 427.842C-54.8604 430.225 -55.2517 432.047 -56.0343 433.308C-56.8029 434.569 -57.9349 435.199 -59.4302 435.199C-60.9115 435.199 -62.0435 434.569 -62.8261 433.308C-63.6087 432.047 -64 430.225 -64 427.842C-64 425.473 -63.6087 423.658 -62.8261 422.398C-62.0435 421.137 -60.9115 420.506 -59.4302 420.506ZM-62.5117 427.842C-62.5117 429.533 -62.3579 430.856 -62.0505 431.812L-57.3968 422.605C-57.886 421.954 -58.5637 421.629 -59.4302 421.629C-60.3945 421.629 -61.1491 422.141 -61.6941 423.166C-62.2392 424.178 -62.5117 425.737 -62.5117 427.842ZM-59.4302 434.056C-58.4519 434.056 -57.6903 433.551 -57.1453 432.539C-56.6003 431.514 -56.3278 429.948 -56.3278 427.842C-56.3278 426.055 -56.5024 424.67 -56.8518 423.686L-61.5055 432.976C-61.0024 433.696 -60.3106 434.056 -59.4302 434.056Z" fill="url(#paint29_linear_122_130)" fill-opacity="0.6"/>
<path d="M-58.1724 457.641H-55.091V458.743H-63.0777V457.641H-59.514V445.962L-62.91 447.977L-63.4969 447.042L-59.3044 444.465H-58.1724V457.641Z" fill="url(#paint30_linear_122_130)" fill-opacity="0.6"/>
<path d="M-58.1724 481.392H-55.091V482.494H-63.0777V481.392H-59.514V469.713L-62.91 471.728L-63.4969 470.793L-59.3044 468.216H-58.1724V481.392Z" fill="url(#paint31_linear_122_130)" fill-opacity="0.6"/>
<path d="M-19.2423 315.135H-16.1608V316.236H-24.1475V315.135H-20.5838V303.455L-23.9798 305.471L-24.5667 304.536L-20.3742 301.959H-19.2423V315.135Z" fill="url(#paint32_linear_122_130)" fill-opacity="0.6"/>
<path d="M-20.5 325.502C-19.0047 325.502 -17.8727 326.133 -17.1041 327.393C-16.3215 328.64 -15.9302 330.455 -15.9302 332.838C-15.9302 335.221 -16.3215 337.043 -17.1041 338.304C-17.8727 339.565 -19.0047 340.195 -20.5 340.195C-21.9813 340.195 -23.1133 339.565 -23.8959 338.304C-24.6785 337.043 -25.0698 335.221 -25.0698 332.838C-25.0698 330.469 -24.6785 328.654 -23.8959 327.393C-23.1133 326.133 -21.9813 325.502 -20.5 325.502ZM-23.5815 332.838C-23.5815 334.529 -23.4277 335.852 -23.1203 336.808L-18.4666 327.601C-18.9558 326.95 -19.6336 326.624 -20.5 326.624C-21.4643 326.624 -22.2189 327.137 -22.7639 328.162C-23.309 329.174 -23.5815 330.732 -23.5815 332.838ZM-20.5 339.052C-19.5218 339.052 -18.7601 338.546 -18.2151 337.535C-17.6701 336.51 -17.3976 334.944 -17.3976 332.838C-17.3976 331.051 -17.5723 329.665 -17.9216 328.682L-22.5753 337.971C-22.0722 338.692 -21.3804 339.052 -20.5 339.052Z" fill="url(#paint33_linear_122_130)" fill-opacity="0.6"/>
<path d="M-19.2423 362.637H-16.1608V363.738H-24.1475V362.637H-20.5838V350.957L-23.9798 352.973L-24.5667 352.038L-20.3742 349.461H-19.2423V362.637Z" fill="url(#paint34_linear_122_130)" fill-opacity="0.6"/>
<path d="M-19.2423 386.388H-16.1608V387.489H-24.1475V386.388H-20.5838V374.708L-23.9798 376.724L-24.5667 375.789L-20.3742 373.212H-19.2423V386.388Z" fill="url(#paint35_linear_122_130)" fill-opacity="0.6"/>
<path d="M-20.5 396.755C-19.0047 396.755 -17.8727 397.386 -17.1041 398.646C-16.3215 399.893 -15.9302 401.708 -15.9302 404.091C-15.9302 406.474 -16.3215 408.296 -17.1041 409.557C-17.8727 410.818 -19.0047 411.448 -20.5 411.448C-21.9813 411.448 -23.1133 410.818 -23.8959 409.557C-24.6785 408.296 -25.0698 406.474 -25.0698 404.091C-25.0698 401.722 -24.6785 399.907 -23.8959 398.646C-23.1133 397.386 -21.9813 396.755 -20.5 396.755ZM-23.5815 404.091C-23.5815 405.782 -23.4277 407.105 -23.1203 408.061L-18.4666 398.854C-18.9558 398.203 -19.6336 397.878 -20.5 397.878C-21.4643 397.878 -22.2189 398.39 -22.7639 399.415C-23.309 400.427 -23.5815 401.985 -23.5815 404.091ZM-20.5 410.305C-19.5218 410.305 -18.7601 409.8 -18.2151 408.788C-17.6701 407.763 -17.3976 406.197 -17.3976 404.091C-17.3976 402.304 -17.5723 400.919 -17.9216 399.935L-22.5753 409.225C-22.0722 409.945 -21.3804 410.305 -20.5 410.305Z" fill="url(#paint36_linear_122_130)" fill-opacity="0.6"/>
<path d="M-19.2423 433.89H-16.1608V434.992H-24.1475V433.89H-20.5838V422.21L-23.9798 424.226L-24.5667 423.291L-20.3742 420.714H-19.2423V433.89Z" fill="url(#paint37_linear_122_130)" fill-opacity="0.6"/>
<path d="M-19.2423 457.641H-16.1608V458.743H-24.1475V457.641H-20.5838V445.962L-23.9798 447.977L-24.5667 447.042L-20.3742 444.465H-19.2423V457.641Z" fill="url(#paint38_linear_122_130)" fill-opacity="0.6"/>
<path d="M-20.5 468.008C-19.0047 468.008 -17.8727 468.639 -17.1041 469.9C-16.3215 471.147 -15.9302 472.962 -15.9302 475.345C-15.9302 477.728 -16.3215 479.549 -17.1041 480.81C-17.8727 482.071 -19.0047 482.701 -20.5 482.701C-21.9813 482.701 -23.1133 482.071 -23.8959 480.81C-24.6785 479.549 -25.0698 477.728 -25.0698 475.345C-25.0698 472.975 -24.6785 471.16 -23.8959 469.9C-23.1133 468.639 -21.9813 468.008 -20.5 468.008ZM-23.5815 475.345C-23.5815 477.035 -23.4277 478.358 -23.1203 479.314L-18.4666 470.107C-18.9558 469.456 -19.6336 469.131 -20.5 469.131C-21.4643 469.131 -22.2189 469.643 -22.7639 470.669C-23.309 471.68 -23.5815 473.239 -23.5815 475.345ZM-20.5 481.558C-19.5218 481.558 -18.7601 481.053 -18.2151 480.041C-17.6701 479.016 -17.3976 477.451 -17.3976 475.345C-17.3976 473.557 -17.5723 472.172 -17.9216 471.188L-22.5753 480.478C-22.0722 481.198 -21.3804 481.558 -20.5 481.558Z" fill="url(#paint39_linear_122_130)" fill-opacity="0.6"/>
<path d="M-19.2423 505.143H-16.1608V506.245H-24.1475V505.143H-20.5838V493.464L-23.9798 495.48L-24.5667 494.544L-20.3742 491.967H-19.2423V505.143Z" fill="url(#paint40_linear_122_130)" fill-opacity="0.6"/>
<path d="M-20.5 515.511C-19.0047 515.511 -17.8727 516.141 -17.1041 517.402C-16.3215 518.649 -15.9302 520.464 -15.9302 522.847C-15.9302 525.23 -16.3215 527.052 -17.1041 528.312C-17.8727 529.573 -19.0047 530.204 -20.5 530.204C-21.9813 530.204 -23.1133 529.573 -23.8959 528.312C-24.6785 527.052 -25.0698 525.23 -25.0698 522.847C-25.0698 520.478 -24.6785 518.663 -23.8959 517.402C-23.1133 516.141 -21.9813 515.511 -20.5 515.511ZM-23.5815 522.847C-23.5815 524.537 -23.4277 525.86 -23.1203 526.816L-18.4666 517.61C-18.9558 516.958 -19.6336 516.633 -20.5 516.633C-21.4643 516.633 -22.2189 517.145 -22.7639 518.171C-23.309 519.182 -23.5815 520.741 -23.5815 522.847ZM-20.5 529.061C-19.5218 529.061 -18.7601 528.555 -18.2151 527.543C-17.6701 526.518 -17.3976 524.953 -17.3976 522.847C-17.3976 521.059 -17.5723 519.674 -17.9216 518.69L-22.5753 527.98C-22.0722 528.7 -21.3804 529.061 -20.5 529.061Z" fill="url(#paint41_linear_122_130)" fill-opacity="0.6"/>
<path d="M18.4302 301.751C19.9255 301.751 21.0575 302.381 21.8261 303.642C22.6087 304.889 23 306.704 23 309.087C23 311.47 22.6087 313.292 21.8261 314.553C21.0575 315.814 19.9255 316.444 18.4302 316.444C16.9489 316.444 15.8169 315.814 15.0343 314.553C14.2517 313.292 13.8604 311.47 13.8604 309.087C13.8604 306.718 14.2517 304.903 15.0343 303.642C15.8169 302.381 16.9489 301.751 18.4302 301.751ZM15.3487 309.087C15.3487 310.777 15.5024 312.101 15.8099 313.057L20.4636 303.85C19.9744 303.199 19.2966 302.873 18.4302 302.873C17.4659 302.873 16.7113 303.386 16.1663 304.411C15.6212 305.423 15.3487 306.981 15.3487 309.087ZM18.4302 315.301C19.4084 315.301 20.1701 314.795 20.7151 313.784C21.2601 312.759 21.5326 311.193 21.5326 309.087C21.5326 307.3 21.3579 305.914 21.0086 304.931L16.3549 314.22C16.858 314.941 17.5498 315.301 18.4302 315.301Z" fill="url(#paint42_linear_122_130)" fill-opacity="0.6"/>
<path d="M19.6879 338.886H22.7694V339.987H14.7827V338.886H18.3463V327.206L14.9504 329.222L14.3635 328.287L18.556 325.71H19.6879V338.886Z" fill="url(#paint43_linear_122_130)" fill-opacity="0.6"/>
<path d="M19.6879 362.637H22.7694V363.738H14.7827V362.637H18.3463V350.957L14.9504 352.973L14.3635 352.038L18.556 349.461H19.6879V362.637Z" fill="url(#paint44_linear_122_130)" fill-opacity="0.6"/>
<path d="M18.4302 373.004C19.9255 373.004 21.0575 373.635 21.8261 374.895C22.6087 376.142 23 377.957 23 380.34C23 382.723 22.6087 384.545 21.8261 385.806C21.0575 387.067 19.9255 387.697 18.4302 387.697C16.9489 387.697 15.8169 387.067 15.0343 385.806C14.2517 384.545 13.8604 382.723 13.8604 380.34C13.8604 377.971 14.2517 376.156 15.0343 374.895C15.8169 373.635 16.9489 373.004 18.4302 373.004ZM15.3487 380.34C15.3487 382.031 15.5024 383.354 15.8099 384.31L20.4636 375.103C19.9744 374.452 19.2966 374.126 18.4302 374.126C17.4659 374.126 16.7113 374.639 16.1663 375.664C15.6212 376.676 15.3487 378.234 15.3487 380.34ZM18.4302 386.554C19.4084 386.554 20.1701 386.049 20.7151 385.037C21.2601 384.012 21.5326 382.446 21.5326 380.34C21.5326 378.553 21.3579 377.168 21.0086 376.184L16.3549 385.474C16.858 386.194 17.5498 386.554 18.4302 386.554Z" fill="url(#paint45_linear_122_130)" fill-opacity="0.6"/>
<path d="M18.4302 396.755C19.9255 396.755 21.0575 397.386 21.8261 398.646C22.6087 399.893 23 401.708 23 404.091C23 406.474 22.6087 408.296 21.8261 409.557C21.0575 410.818 19.9255 411.448 18.4302 411.448C16.9489 411.448 15.8169 410.818 15.0343 409.557C14.2517 408.296 13.8604 406.474 13.8604 404.091C13.8604 401.722 14.2517 399.907 15.0343 398.646C15.8169 397.386 16.9489 396.755 18.4302 396.755ZM15.3487 404.091C15.3487 405.782 15.5024 407.105 15.8099 408.061L20.4636 398.854C19.9744 398.203 19.2966 397.878 18.4302 397.878C17.4659 397.878 16.7113 398.39 16.1663 399.415C15.6212 400.427 15.3487 401.985 15.3487 404.091ZM18.4302 410.305C19.4084 410.305 20.1701 409.8 20.7151 408.788C21.2601 407.763 21.5326 406.197 21.5326 404.091C21.5326 402.304 21.3579 400.919 21.0086 399.935L16.3549 409.225C16.858 409.945 17.5498 410.305 18.4302 410.305Z" fill="url(#paint46_linear_122_130)" fill-opacity="0.6"/>
<g opacity="0.6">
<path d="M846.93 -22C848.356 -22 849.436 -21.395 850.17 -20.1851C850.916 -18.9885 851.29 -17.2468 851.29 -14.9599C851.29 -12.673 850.916 -10.9246 850.17 -9.71468C849.436 -8.50476 848.356 -7.8998 846.93 -7.8998C845.517 -7.8998 844.437 -8.50476 843.69 -9.71468C842.943 -10.9246 842.57 -12.673 842.57 -14.9599C842.57 -17.2335 842.943 -18.9752 843.69 -20.1851C844.437 -21.395 845.517 -22 846.93 -22ZM843.99 -14.9599C843.99 -13.3378 844.137 -12.068 844.43 -11.1506L848.87 -19.9857C848.403 -20.6106 847.756 -20.923 846.93 -20.923C846.01 -20.923 845.29 -20.4311 844.77 -19.4472C844.25 -18.4766 843.99 -16.9808 843.99 -14.9599ZM846.93 -8.99671C847.863 -8.99671 848.59 -9.482 849.11 -10.4526C849.63 -11.4365 849.89 -12.9389 849.89 -14.9599C849.89 -16.675 849.723 -18.0046 849.39 -18.9486L844.95 -10.0338C845.43 -9.3424 846.09 -8.99671 846.93 -8.99671Z" fill="url(#paint47_linear_122_130)"/>
<path d="M848.13 13.6365H851.07V14.6936H843.45V13.6365H846.85V2.42819L843.61 4.36273L843.05 3.46526L847.05 0.992239H848.13V13.6365Z" fill="url(#paint48_linear_122_130)"/>
<path d="M846.93 23.5856C848.356 23.5856 849.436 24.1906 850.17 25.4005C850.916 26.5971 851.29 28.3389 851.29 30.6257C851.29 32.9126 850.916 34.661 850.17 35.8709C849.436 37.0808 848.356 37.6858 846.93 37.6858C845.517 37.6858 844.437 37.0808 843.69 35.8709C842.943 34.661 842.57 32.9126 842.57 30.6257C842.57 28.3522 842.943 26.6104 843.69 25.4005C844.437 24.1906 845.517 23.5856 846.93 23.5856ZM843.99 30.6257C843.99 32.2478 844.137 33.5176 844.43 34.435L848.87 25.5999C848.403 24.975 847.756 24.6626 846.93 24.6626C846.01 24.6626 845.29 25.1545 844.77 26.1384C844.25 27.109 843.99 28.6048 843.99 30.6257ZM846.93 36.5889C847.863 36.5889 848.59 36.1036 849.11 35.133C849.63 34.1491 849.89 32.6467 849.89 30.6257C849.89 28.9106 849.723 27.581 849.39 26.637L844.95 35.5518C845.43 36.2432 846.09 36.5889 846.93 36.5889Z" fill="url(#paint49_linear_122_130)"/>
<path d="M848.13 59.2221H851.07V60.2792H843.45V59.2221H846.85V48.0138L843.61 49.9483L843.05 49.0509L847.05 46.5778H848.13V59.2221Z" fill="url(#paint50_linear_122_130)"/>
<path d="M848.13 82.015H851.07V83.072H843.45V82.015H846.85V70.8066L843.61 72.7411L843.05 71.8437L847.05 69.3706H848.13V82.015Z" fill="url(#paint51_linear_122_130)"/>
<path d="M846.93 91.964C848.356 91.964 849.436 92.569 850.17 93.7789C850.916 94.9755 851.29 96.7173 851.29 99.0041C851.29 101.291 850.916 103.039 850.17 104.249C849.436 105.459 848.356 106.064 846.93 106.064C845.517 106.064 844.437 105.459 843.69 104.249C842.943 103.039 842.57 101.291 842.57 99.0041C842.57 96.7306 842.943 94.9888 843.69 93.7789C844.437 92.569 845.517 91.964 846.93 91.964ZM843.99 99.0041C843.99 100.626 844.137 101.896 844.43 102.813L848.87 93.9783C848.403 93.3534 847.756 93.041 846.93 93.041C846.01 93.041 845.29 93.5329 844.77 94.5168C844.25 95.4874 843.99 96.9832 843.99 99.0041ZM846.93 104.967C847.863 104.967 848.59 104.482 849.11 103.511C849.63 102.528 849.89 101.025 849.89 99.0041C849.89 97.289 849.723 95.9594 849.39 95.0154L844.95 103.93C845.43 104.622 846.09 104.967 846.93 104.967Z" fill="url(#paint52_linear_122_130)"/>
<path d="M848.13 127.601H851.07V128.658H843.45V127.601H846.85V116.392L843.61 118.327L843.05 117.429L847.05 114.956H848.13V127.601Z" fill="url(#paint53_linear_122_130)"/>
<path d="M846.93 137.55C848.356 137.55 849.436 138.155 850.17 139.365C850.916 140.561 851.29 142.303 851.29 144.59C851.29 146.877 850.916 148.625 850.17 149.835C849.436 151.045 848.356 151.65 846.93 151.65C845.517 151.65 844.437 151.045 843.69 149.835C842.943 148.625 842.57 146.877 842.57 144.59C842.57 142.316 842.943 140.574 843.69 139.365C844.437 138.155 845.517 137.55 846.93 137.55ZM843.99 144.59C843.99 146.212 844.137 147.482 844.43 148.399L848.87 139.564C848.403 138.939 847.756 138.627 846.93 138.627C846.01 138.627 845.29 139.119 844.77 140.102C844.25 141.073 843.99 142.569 843.99 144.59ZM846.93 150.553C847.863 150.553 848.59 150.068 849.11 149.097C849.63 148.113 849.89 146.611 849.89 144.59C849.89 142.875 849.723 141.545 849.39 140.601L844.95 149.516C845.43 150.207 846.09 150.553 846.93 150.553Z" fill="url(#paint54_linear_122_130)"/>
<path d="M846.93 160.342C848.356 160.342 849.436 160.947 850.17 162.157C850.916 163.354 851.29 165.096 851.29 167.383C851.29 169.669 850.916 171.418 850.17 172.628C849.436 173.838 848.356 174.443 846.93 174.443C845.517 174.443 844.437 173.838 843.69 172.628C842.943 171.418 842.57 169.669 842.57 167.383C842.57 165.109 842.943 163.367 843.69 162.157C844.437 160.947 845.517 160.342 846.93 160.342ZM843.99 167.383C843.99 169.005 844.137 170.274 844.43 171.192L848.87 162.357C848.403 161.732 847.756 161.419 846.93 161.419C846.01 161.419 845.29 161.911 844.77 162.895C844.25 163.866 843.99 165.362 843.99 167.383ZM846.93 173.346C847.863 173.346 848.59 172.86 849.11 171.89C849.63 170.906 849.89 169.404 849.89 167.383C849.89 165.667 849.723 164.338 849.39 163.394L844.95 172.309C845.43 173 846.09 173.346 846.93 173.346Z" fill="url(#paint55_linear_122_130)"/>
<path d="M848.13 195.979H851.07V197.036H843.45V195.979H846.85V184.771L843.61 186.705L843.05 185.808L847.05 183.335H848.13V195.979Z" fill="url(#paint56_linear_122_130)"/>
<path d="M846.93 205.928C848.356 205.928 849.436 206.533 850.17 207.743C850.916 208.94 851.29 210.681 851.29 212.968C851.29 215.255 850.916 217.003 850.17 218.213C849.436 219.423 848.356 220.028 846.93 220.028C845.517 220.028 844.437 219.423 843.69 218.213C842.943 217.003 842.57 215.255 842.57 212.968C842.57 210.695 842.943 208.953 843.69 207.743C844.437 206.533 845.517 205.928 846.93 205.928ZM843.99 212.968C843.99 214.59 844.137 215.86 844.43 216.777L848.87 207.942C848.403 207.317 847.756 207.005 846.93 207.005C846.01 207.005 845.29 207.497 844.77 208.481C844.25 209.451 843.99 210.947 843.99 212.968ZM846.93 218.931C847.863 218.931 848.59 218.446 849.11 217.475C849.63 216.492 849.89 214.989 849.89 212.968C849.89 211.253 849.723 209.923 849.39 208.979L844.95 217.894C845.43 218.586 846.09 218.931 846.93 218.931Z" fill="url(#paint57_linear_122_130)"/>
<path d="M848.13 241.565H851.07V242.622H843.45V241.565H846.85V230.356L843.61 232.291L843.05 231.393L847.05 228.92H848.13V241.565Z" fill="url(#paint58_linear_122_130)"/>
<path d="M848.13 264.357H851.07V265.414H843.45V264.357H846.85V253.149L843.61 255.084L843.05 254.186L847.05 251.713H848.13V264.357Z" fill="url(#paint59_linear_122_130)"/>
<path d="M884.07 23.5856C885.497 23.5856 886.577 24.1906 887.31 25.4005C888.057 26.5971 888.43 28.3389 888.43 30.6257C888.43 32.9126 888.057 34.661 887.31 35.8709C886.577 37.0808 885.497 37.6858 884.07 37.6858C882.657 37.6858 881.577 37.0808 880.83 35.8709C880.084 34.661 879.71 32.9126 879.71 30.6257C879.71 28.3522 880.084 26.6104 880.83 25.4005C881.577 24.1906 882.657 23.5856 884.07 23.5856ZM881.13 30.6257C881.13 32.2478 881.277 33.5176 881.57 34.435L886.01 25.5999C885.543 24.975 884.897 24.6626 884.07 24.6626C883.15 24.6626 882.43 25.1545 881.91 26.1384C881.39 27.109 881.13 28.6048 881.13 30.6257ZM884.07 36.5889C885.003 36.5889 885.73 36.1036 886.25 35.133C886.77 34.1491 887.03 32.6467 887.03 30.6257C887.03 28.9106 886.863 27.581 886.53 26.637L882.09 35.5518C882.57 36.2432 883.23 36.5889 884.07 36.5889Z" fill="url(#paint60_linear_122_130)"/>
<path d="M885.27 59.2221H888.21V60.2792H880.59V59.2221H883.99V48.0138L880.75 49.9483L880.19 49.0509L884.19 46.5778H885.27V59.2221Z" fill="url(#paint61_linear_122_130)"/>
<path d="M884.07 69.1712C885.497 69.1712 886.577 69.7762 887.31 70.9861C888.057 72.1827 888.43 73.9245 888.43 76.2113C888.43 78.4982 888.057 80.2466 887.31 81.4565C886.577 82.6664 885.497 83.2714 884.07 83.2714C882.657 83.2714 881.577 82.6664 880.83 81.4565C880.084 80.2466 879.71 78.4982 879.71 76.2113C879.71 73.9378 880.084 72.196 880.83 70.9861C881.577 69.7762 882.657 69.1712 884.07 69.1712ZM881.13 76.2113C881.13 77.8334 881.277 79.1032 881.57 80.0206L886.01 71.1855C885.543 70.5606 884.897 70.2482 884.07 70.2482C883.15 70.2482 882.43 70.7401 881.91 71.724C881.39 72.6946 881.13 74.1904 881.13 76.2113ZM884.07 82.1745C885.003 82.1745 885.73 81.6892 886.25 80.7186C886.77 79.7347 887.03 78.2323 887.03 76.2113C887.03 74.4962 886.863 73.1666 886.53 72.2226L882.09 81.1374C882.57 81.8288 883.23 82.1745 884.07 82.1745Z" fill="url(#paint62_linear_122_130)"/>
<path d="M884.07 91.964C885.497 91.964 886.577 92.569 887.31 93.7789C888.057 94.9755 888.43 96.7173 888.43 99.0041C888.43 101.291 888.057 103.039 887.31 104.249C886.577 105.459 885.497 106.064 884.07 106.064C882.657 106.064 881.577 105.459 880.83 104.249C880.084 103.039 879.71 101.291 879.71 99.0041C879.71 96.7306 880.084 94.9888 880.83 93.7789C881.577 92.569 882.657 91.964 884.07 91.964ZM881.13 99.0041C881.13 100.626 881.277 101.896 881.57 102.813L886.01 93.9783C885.543 93.3534 884.897 93.041 884.07 93.041C883.15 93.041 882.43 93.5329 881.91 94.5168C881.39 95.4874 881.13 96.9832 881.13 99.0041ZM884.07 104.967C885.003 104.967 885.73 104.482 886.25 103.511C886.77 102.528 887.03 101.025 887.03 99.0041C887.03 97.289 886.863 95.9594 886.53 95.0154L882.09 103.93C882.57 104.622 883.23 104.967 884.07 104.967Z" fill="url(#paint63_linear_122_130)"/>
<path d="M885.27 127.601H888.21V128.658H880.59V127.601H883.99V116.392L880.75 118.327L880.19 117.429L884.19 114.956H885.27V127.601Z" fill="url(#paint64_linear_122_130)"/>
<path d="M884.07 137.55C885.497 137.55 886.577 138.155 887.31 139.365C888.057 140.561 888.43 142.303 888.43 144.59C888.43 146.877 888.057 148.625 887.31 149.835C886.577 151.045 885.497 151.65 884.07 151.65C882.657 151.65 881.577 151.045 880.83 149.835C880.084 148.625 879.71 146.877 879.71 144.59C879.71 142.316 880.084 140.574 880.83 139.365C881.577 138.155 882.657 137.55 884.07 137.55ZM881.13 144.59C881.13 146.212 881.277 147.482 881.57 148.399L886.01 139.564C885.543 138.939 884.897 138.627 884.07 138.627C883.15 138.627 882.43 139.119 881.91 140.102C881.39 141.073 881.13 142.569 881.13 144.59ZM884.07 150.553C885.003 150.553 885.73 150.068 886.25 149.097C886.77 148.113 887.03 146.611 887.03 144.59C887.03 142.875 886.863 141.545 886.53 140.601L882.09 149.516C882.57 150.207 883.23 150.553 884.07 150.553Z" fill="url(#paint65_linear_122_130)"/>
<path d="M885.27 173.186H888.21V174.243H880.59V173.186H883.99V161.978L880.75 163.912L880.19 163.015L884.19 160.542H885.27V173.186Z" fill="url(#paint66_linear_122_130)"/>
<path d="M884.07 183.135C885.497 183.135 886.577 183.74 887.31 184.95C888.057 186.147 888.43 187.888 888.43 190.175C888.43 192.462 888.057 194.211 887.31 195.421C886.577 196.63 885.497 197.235 884.07 197.235C882.657 197.235 881.577 196.63 880.83 195.421C880.084 194.211 879.71 192.462 879.71 190.175C879.71 187.902 880.084 186.16 880.83 184.95C881.577 183.74 882.657 183.135 884.07 183.135ZM881.13 190.175C881.13 191.797 881.277 193.067 881.57 193.985L886.01 185.15C885.543 184.525 884.897 184.212 884.07 184.212C883.15 184.212 882.43 184.704 881.91 185.688C881.39 186.659 881.13 188.154 881.13 190.175ZM884.07 196.139C885.003 196.139 885.73 195.653 886.25 194.683C886.77 193.699 887.03 192.196 887.03 190.175C887.03 188.46 886.863 187.131 886.53 186.187L882.09 195.101C882.57 195.793 883.23 196.139 884.07 196.139Z" fill="url(#paint67_linear_122_130)"/>
<path d="M884.07 205.928C885.497 205.928 886.577 206.533 887.31 207.743C888.057 208.94 888.43 210.681 888.43 212.968C888.43 215.255 888.057 217.003 887.31 218.213C886.577 219.423 885.497 220.028 884.07 220.028C882.657 220.028 881.577 219.423 880.83 218.213C880.084 217.003 879.71 215.255 879.71 212.968C879.71 210.695 880.084 208.953 880.83 207.743C881.577 206.533 882.657 205.928 884.07 205.928ZM881.13 212.968C881.13 214.59 881.277 215.86 881.57 216.777L886.01 207.942C885.543 207.317 884.897 207.005 884.07 207.005C883.15 207.005 882.43 207.497 881.91 208.481C881.39 209.451 881.13 210.947 881.13 212.968ZM884.07 218.931C885.003 218.931 885.73 218.446 886.25 217.475C886.77 216.492 887.03 214.989 887.03 212.968C887.03 211.253 886.863 209.923 886.53 208.979L882.09 217.894C882.57 218.586 883.23 218.931 884.07 218.931Z" fill="url(#paint68_linear_122_130)"/>
<path d="M885.27 241.565H888.21V242.622H880.59V241.565H883.99V230.356L880.75 232.291L880.19 231.393L884.19 228.92H885.27V241.565Z" fill="url(#paint69_linear_122_130)"/>
<path d="M884.07 251.514C885.497 251.514 886.577 252.119 887.31 253.329C888.057 254.525 888.43 256.267 888.43 258.554C888.43 260.841 888.057 262.589 887.31 263.799C886.577 265.009 885.497 265.614 884.07 265.614C882.657 265.614 881.577 265.009 880.83 263.799C880.084 262.589 879.71 260.841 879.71 258.554C879.71 256.28 880.084 254.538 880.83 253.329C881.577 252.119 882.657 251.514 884.07 251.514ZM881.13 258.554C881.13 260.176 881.277 261.446 881.57 262.363L886.01 253.528C885.543 252.903 884.897 252.591 884.07 252.591C883.15 252.591 882.43 253.083 881.91 254.066C881.39 255.037 881.13 256.533 881.13 258.554ZM884.07 264.517C885.003 264.517 885.73 264.032 886.25 263.061C886.77 262.077 887.03 260.575 887.03 258.554C887.03 256.839 886.863 255.509 886.53 254.565L882.09 263.48C882.57 264.171 883.23 264.517 884.07 264.517Z" fill="url(#paint70_linear_122_130)"/>
<path d="M885.27 287.15H888.21V288.207H880.59V287.15H883.99V275.942L880.75 277.876L880.19 276.979L884.19 274.506H885.27V287.15Z" fill="url(#paint71_linear_122_130)"/>
<path d="M885.27 309.943H888.21V311H880.59V309.943H883.99V298.735L880.75 300.669L880.19 299.772L884.19 297.299H885.27V309.943Z" fill="url(#paint72_linear_122_130)"/>
<path d="M828.36 46.3784C829.786 46.3784 830.866 46.9834 831.599 48.1933C832.346 49.3899 832.719 51.1317 832.719 53.4185C832.719 55.7054 832.346 57.4538 831.599 58.6637C830.866 59.8736 829.786 60.4786 828.36 60.4786C826.946 60.4786 825.867 59.8736 825.12 58.6637C824.373 57.4538 824 55.7054 824 53.4185C824 51.145 824.373 49.4032 825.12 48.1933C825.867 46.9834 826.946 46.3784 828.36 46.3784ZM825.42 53.4185C825.42 55.0406 825.567 56.3104 825.86 57.2278L830.3 48.3927C829.833 47.7678 829.186 47.4554 828.36 47.4554C827.44 47.4554 826.72 47.9473 826.2 48.9312C825.68 49.9018 825.42 51.3976 825.42 53.4185ZM828.36 59.3817C829.293 59.3817 830.02 58.8964 830.54 57.9258C831.06 56.9419 831.319 55.4395 831.319 53.4185C831.319 51.7034 831.153 50.3738 830.82 49.4298L826.38 58.3446C826.86 59.036 827.52 59.3817 828.36 59.3817Z" fill="url(#paint73_linear_122_130)"/>
<path d="M828.36 69.1712C829.786 69.1712 830.866 69.7762 831.599 70.9861C832.346 72.1827 832.719 73.9245 832.719 76.2113C832.719 78.4982 832.346 80.2466 831.599 81.4565C830.866 82.6664 829.786 83.2714 828.36 83.2714C826.946 83.2714 825.867 82.6664 825.12 81.4565C824.373 80.2466 824 78.4982 824 76.2113C824 73.9378 824.373 72.196 825.12 70.9861C825.867 69.7762 826.946 69.1712 828.36 69.1712ZM825.42 76.2113C825.42 77.8334 825.567 79.1032 825.86 80.0206L830.3 71.1855C829.833 70.5606 829.186 70.2482 828.36 70.2482C827.44 70.2482 826.72 70.7401 826.2 71.724C825.68 72.6946 825.42 74.1904 825.42 76.2113ZM828.36 82.1745C829.293 82.1745 830.02 81.6892 830.54 80.7186C831.06 79.7347 831.319 78.2323 831.319 76.2113C831.319 74.4962 831.153 73.1666 830.82 72.2226L826.38 81.1374C826.86 81.8288 827.52 82.1745 828.36 82.1745Z" fill="url(#paint74_linear_122_130)"/>
<path d="M829.56 104.808H832.499V105.865H824.88V104.808H828.28V93.5994L825.04 95.5339L824.48 94.6365L828.48 92.1635H829.56V104.808Z" fill="url(#paint75_linear_122_130)"/>
<path d="M828.36 114.757C829.786 114.757 830.866 115.362 831.599 116.572C832.346 117.768 832.719 119.51 832.719 121.797C832.719 124.084 832.346 125.832 831.599 127.042C830.866 128.252 829.786 128.857 828.36 128.857C826.946 128.857 825.867 128.252 825.12 127.042C824.373 125.832 824 124.084 824 121.797C824 119.523 824.373 117.782 825.12 116.572C825.867 115.362 826.946 114.757 828.36 114.757ZM825.42 121.797C825.42 123.419 825.567 124.689 825.86 125.606L830.3 116.771C829.833 116.146 829.186 115.834 828.36 115.834C827.44 115.834 826.72 116.326 826.2 117.31C825.68 118.28 825.42 119.776 825.42 121.797ZM828.36 127.76C829.293 127.76 830.02 127.275 830.54 126.304C831.06 125.32 831.319 123.818 831.319 121.797C831.319 120.082 831.153 118.752 830.82 117.808L826.38 126.723C826.86 127.414 827.52 127.76 828.36 127.76Z" fill="url(#paint76_linear_122_130)"/>
<path d="M829.56 150.393H832.499V151.45H824.88V150.393H828.28V139.185L825.04 141.12L824.48 140.222L828.48 137.749H829.56V150.393Z" fill="url(#paint77_linear_122_130)"/>
<path d="M829.56 173.186H832.499V174.243H824.88V173.186H828.28V161.978L825.04 163.912L824.48 163.015L828.48 160.542H829.56V173.186Z" fill="url(#paint78_linear_122_130)"/>
<path d="M866.7 13.6365H869.64V14.6936H862.02V13.6365H865.42V2.42819L862.18 4.36273L861.62 3.46526L865.62 0.992239H866.7V13.6365Z" fill="url(#paint79_linear_122_130)"/>
<path d="M865.5 23.5856C866.927 23.5856 868.006 24.1906 868.74 25.4005C869.486 26.5971 869.86 28.3389 869.86 30.6257C869.86 32.9126 869.486 34.661 868.74 35.8709C868.006 37.0808 866.927 37.6858 865.5 37.6858C864.087 37.6858 863.007 37.0808 862.26 35.8709C861.514 34.661 861.14 32.9126 861.14 30.6257C861.14 28.3522 861.514 26.6104 862.26 25.4005C863.007 24.1906 864.087 23.5856 865.5 23.5856ZM862.56 30.6257C862.56 32.2478 862.707 33.5176 863 34.435L867.44 25.5999C866.973 24.975 866.327 24.6626 865.5 24.6626C864.58 24.6626 863.86 25.1545 863.34 26.1384C862.82 27.109 862.56 28.6048 862.56 30.6257ZM865.5 36.5889C866.433 36.5889 867.16 36.1036 867.68 35.133C868.2 34.1491 868.46 32.6467 868.46 30.6257C868.46 28.9106 868.293 27.581 867.96 26.637L863.52 35.5518C864 36.2432 864.66 36.5889 865.5 36.5889Z" fill="url(#paint80_linear_122_130)"/>
<path d="M866.7 59.2221H869.64V60.2792H862.02V59.2221H865.42V48.0138L862.18 49.9483L861.62 49.0509L865.62 46.5778H866.7V59.2221Z" fill="url(#paint81_linear_122_130)"/>
<path d="M866.7 82.015H869.64V83.072H862.02V82.015H865.42V70.8066L862.18 72.7411L861.62 71.8437L865.62 69.3706H866.7V82.015Z" fill="url(#paint82_linear_122_130)"/>
<path d="M865.5 91.964C866.927 91.964 868.006 92.569 868.74 93.7789C869.486 94.9755 869.86 96.7173 869.86 99.0041C869.86 101.291 869.486 103.039 868.74 104.249C868.006 105.459 866.927 106.064 865.5 106.064C864.087 106.064 863.007 105.459 862.26 104.249C861.514 103.039 861.14 101.291 861.14 99.0041C861.14 96.7306 861.514 94.9888 862.26 93.7789C863.007 92.569 864.087 91.964 865.5 91.964ZM862.56 99.0041C862.56 100.626 862.707 101.896 863 102.813L867.44 93.9783C866.973 93.3534 866.327 93.041 865.5 93.041C864.58 93.041 863.86 93.5329 863.34 94.5168C862.82 95.4874 862.56 96.9832 862.56 99.0041ZM865.5 104.967C866.433 104.967 867.16 104.482 867.68 103.511C868.2 102.528 868.46 101.025 868.46 99.0041C868.46 97.289 868.293 95.9594 867.96 95.0154L863.52 103.93C864 104.622 864.66 104.967 865.5 104.967Z" fill="url(#paint83_linear_122_130)"/>
<path d="M866.7 127.601H869.64V128.658H862.02V127.601H865.42V116.392L862.18 118.327L861.62 117.429L865.62 114.956H866.7V127.601Z" fill="url(#paint84_linear_122_130)"/>
<path d="M866.7 150.393H869.64V151.45H862.02V150.393H865.42V139.185L862.18 141.12L861.62 140.222L865.62 137.749H866.7V150.393Z" fill="url(#paint85_linear_122_130)"/>
<path d="M865.5 160.342C866.927 160.342 868.006 160.947 868.74 162.157C869.486 163.354 869.86 165.096 869.86 167.383C869.86 169.669 869.486 171.418 868.74 172.628C868.006 173.838 866.927 174.443 865.5 174.443C864.087 174.443 863.007 173.838 862.26 172.628C861.514 171.418 861.14 169.669 861.14 167.383C861.14 165.109 861.514 163.367 862.26 162.157C863.007 160.947 864.087 160.342 865.5 160.342ZM862.56 167.383C862.56 169.005 862.707 170.274 863 171.192L867.44 162.357C866.973 161.732 866.327 161.419 865.5 161.419C864.58 161.419 863.86 161.911 863.34 162.895C862.82 163.866 862.56 165.362 862.56 167.383ZM865.5 173.346C866.433 173.346 867.16 172.86 867.68 171.89C868.2 170.906 868.46 169.404 868.46 167.383C868.46 165.667 868.293 164.338 867.96 163.394L863.52 172.309C864 173 864.66 173.346 865.5 173.346Z" fill="url(#paint86_linear_122_130)"/>
<path d="M866.7 195.979H869.64V197.036H862.02V195.979H865.42V184.771L862.18 186.705L861.62 185.808L865.62 183.335H866.7V195.979Z" fill="url(#paint87_linear_122_130)"/>
<path d="M865.5 205.928C866.927 205.928 868.006 206.533 868.74 207.743C869.486 208.94 869.86 210.681 869.86 212.968C869.86 215.255 869.486 217.003 868.74 218.213C868.006 219.423 866.927 220.028 865.5 220.028C864.087 220.028 863.007 219.423 862.26 218.213C861.514 217.003 861.14 215.255 861.14 212.968C861.14 210.695 861.514 208.953 862.26 207.743C863.007 206.533 864.087 205.928 865.5 205.928ZM862.56 212.968C862.56 214.59 862.707 215.86 863 216.777L867.44 207.942C866.973 207.317 866.327 207.005 865.5 207.005C864.58 207.005 863.86 207.497 863.34 208.481C862.82 209.451 862.56 210.947 862.56 212.968ZM865.5 218.931C866.433 218.931 867.16 218.446 867.68 217.475C868.2 216.492 868.46 214.989 868.46 212.968C868.46 211.253 868.293 209.923 867.96 208.979L863.52 217.894C864 218.586 864.66 218.931 865.5 218.931Z" fill="url(#paint88_linear_122_130)"/>
<path d="M902.64 0.792803C904.067 0.792803 905.147 1.39776 905.88 2.60768C906.627 3.8043 907 5.54605 907 7.83293C907 10.1198 906.627 11.8682 905.88 13.0781C905.147 14.288 904.067 14.893 902.64 14.893C901.227 14.893 900.147 14.288 899.401 13.0781C898.654 11.8682 898.281 10.1198 898.281 7.83293C898.281 5.55935 898.654 3.8176 899.401 2.60768C900.147 1.39776 901.227 0.792803 902.64 0.792803ZM899.7 7.83293C899.7 9.45502 899.847 10.7248 900.14 11.6422L904.58 2.80712C904.114 2.18221 903.467 1.86976 902.64 1.86976C901.72 1.86976 901 2.36171 900.48 3.3456C899.96 4.31619 899.7 5.81197 899.7 7.83293ZM902.64 13.7961C903.574 13.7961 904.3 13.3108 904.82 12.3402C905.34 11.3563 905.6 9.85389 905.6 7.83293C905.6 6.11777 905.433 4.78819 905.1 3.84419L900.66 12.759C901.14 13.4504 901.8 13.7961 902.64 13.7961Z" fill="url(#paint89_linear_122_130)"/>
<path d="M903.84 36.4293H906.78V37.4864H899.161V36.4293H902.56V25.221L899.321 27.1555L898.761 26.2581L902.76 23.785H903.84V36.4293Z" fill="url(#paint90_linear_122_130)"/>
<path d="M903.84 59.2221H906.78V60.2792H899.161V59.2221H902.56V48.0138L899.321 49.9483L898.761 49.0509L902.76 46.5778H903.84V59.2221Z" fill="url(#paint91_linear_122_130)"/>
<path d="M902.64 69.1712C904.067 69.1712 905.147 69.7762 905.88 70.9861C906.627 72.1827 907 73.9245 907 76.2113C907 78.4982 906.627 80.2466 905.88 81.4565C905.147 82.6664 904.067 83.2714 902.64 83.2714C901.227 83.2714 900.147 82.6664 899.401 81.4565C898.654 80.2466 898.281 78.4982 898.281 76.2113C898.281 73.9378 898.654 72.196 899.401 70.9861C900.147 69.7762 901.227 69.1712 902.64 69.1712ZM899.7 76.2113C899.7 77.8334 899.847 79.1032 900.14 80.0206L904.58 71.1855C904.114 70.5606 903.467 70.2482 902.64 70.2482C901.72 70.2482 901 70.7401 900.48 71.724C899.96 72.6946 899.7 74.1904 899.7 76.2113ZM902.64 82.1745C903.574 82.1745 904.3 81.6892 904.82 80.7186C905.34 79.7347 905.6 78.2323 905.6 76.2113C905.6 74.4962 905.433 73.1666 905.1 72.2226L900.66 81.1374C901.14 81.8288 901.8 82.1745 902.64 82.1745Z" fill="url(#paint92_linear_122_130)"/>
<path d="M902.64 91.964C904.067 91.964 905.147 92.569 905.88 93.7789C906.627 94.9755 907 96.7173 907 99.0041C907 101.291 906.627 103.039 905.88 104.249C905.147 105.459 904.067 106.064 902.64 106.064C901.227 106.064 900.147 105.459 899.401 104.249C898.654 103.039 898.281 101.291 898.281 99.0041C898.281 96.7306 898.654 94.9888 899.401 93.7789C900.147 92.569 901.227 91.964 902.64 91.964ZM899.7 99.0041C899.7 100.626 899.847 101.896 900.14 102.813L904.58 93.9783C904.114 93.3534 903.467 93.041 902.64 93.041C901.72 93.041 901 93.5329 900.48 94.5168C899.96 95.4874 899.7 96.9832 899.7 99.0041ZM902.64 104.967C903.574 104.967 904.3 104.482 904.82 103.511C905.34 102.528 905.6 101.025 905.6 99.0041C905.6 97.289 905.433 95.9594 905.1 95.0154L900.66 103.93C901.14 104.622 901.8 104.967 902.64 104.967Z" fill="url(#paint93_linear_122_130)"/>
</g>
</g>
<defs>
<filter id="filter0_f_122_130" x="-631.19" y="-708.19" width="2141.38" height="1500.38" filterUnits="userSpaceOnUse" color-interpolation-filters="sRGB">
<feFlood flood-opacity="0" result="BackgroundImageFix"/>
<feBlend mode="normal" in="SourceGraphic" in2="BackgroundImageFix" result="shape"/>
<feGaussianBlur stdDeviation="200.095" result="effect1_foregroundBlur_122_130"/>
</filter>
<linearGradient id="paint0_linear_122_130" x1="-20.5" y1="278" x2="-20.5" y2="589.381" gradientUnits="userSpaceOnUse">
<stop stop-color="#F7DD43"/>
<stop offset="1" stop-color="#F7DD43" stop-opacity="0"/>
</linearGradient>
<linearGradient id="paint1_linear_122_130" x1="-20.5" y1="278" x2="-20.5" y2="589.381" gradientUnits="userSpaceOnUse">
<stop stop-color="#F7DD43"/>
<stop offset="1" stop-color="#F7DD43" stop-opacity="0"/>
</linearGradient>
<linearGradient id="paint2_linear_122_130" x1="-20.5" y1="278" x2="-20.5" y2="589.381" gradientUnits="userSpaceOnUse">
<stop stop-color="#F7DD43"/>
<stop offset="1" stop-color="#F7DD43" stop-opacity="0"/>
</linearGradient>
<linearGradient id="paint3_linear_122_130" x1="-20.5" y1="278" x2="-20.5" y2="589.381" gradientUnits="userSpaceOnUse">
<stop stop-color="#F7DD43"/>
<stop offset="1" stop-color="#F7DD43" stop-opacity="0"/>
</linearGradient>
<linearGradient id="paint4_linear_122_130" x1="-20.5" y1="278" x2="-20.5" y2="589.381" gradientUnits="userSpaceOnUse">
<stop stop-color="#F7DD43"/>
<stop offset="1" stop-color="#F7DD43" stop-opacity="0"/>
</linearGradient>
<linearGradient id="paint5_linear_122_130" x1="-20.5" y1="278" x2="-20.5" y2="589.381" gradientUnits="userSpaceOnUse">
<stop stop-color="#F7DD43"/>
<stop offset="1" stop-color="#F7DD43" stop-opacity="0"/>
</linearGradient>
<linearGradient id="paint6_linear_122_130" x1="-20.5" y1="278" x2="-20.5" y2="589.381" gradientUnits="userSpaceOnUse">
<stop stop-color="#F7DD43"/>
<stop offset="1" stop-color="#F7DD43" stop-opacity="0"/>
</linearGradient>
<linearGradient id="paint7_linear_122_130" x1="-20.5" y1="278" x2="-20.5" y2="589.381" gradientUnits="userSpaceOnUse">
<stop stop-color="#F7DD43"/>
<stop offset="1" stop-color="#F7DD43" stop-opacity="0"/>
</linearGradient>
<linearGradient id="paint8_linear_122_130" x1="-20.5" y1="278" x2="-20.5" y2="589.381" gradientUnits="userSpaceOnUse">
<stop stop-color="#F7DD43"/>
<stop offset="1" stop-color="#F7DD43" stop-opacity="0"/>
</linearGradient>
<linearGradient id="paint9_linear_122_130" x1="-20.5" y1="278" x2="-20.5" y2="589.381" gradientUnits="userSpaceOnUse">
<stop stop-color="#F7DD43"/>
<stop offset="1" stop-color="#F7DD43" stop-opacity="0"/>
</linearGradient>
<linearGradient id="paint10_linear_122_130" x1="-20.5" y1="278" x2="-20.5" y2="589.381" gradientUnits="userSpaceOnUse">
<stop stop-color="#F7DD43"/>
<stop offset="1" stop-color="#F7DD43" stop-opacity="0"/>
</linearGradient>
<linearGradient id="paint11_linear_122_130" x1="-20.5" y1="278" x2="-20.5" y2="589.381" gradientUnits="userSpaceOnUse">
<stop stop-color="#F7DD43"/>
<stop offset="1" stop-color="#F7DD43" stop-opacity="0"/>
</linearGradient>
<linearGradient id="paint12_linear_122_130" x1="-20.5" y1="278" x2="-20.5" y2="589.381" gradientUnits="userSpaceOnUse">
<stop stop-color="#F7DD43"/>
<stop offset="1" stop-color="#F7DD43" stop-opacity="0"/>
</linearGradient>
<linearGradient id="paint13_linear_122_130" x1="-20.5" y1="278" x2="-20.5" y2="589.381" gradientUnits="userSpaceOnUse">
<stop stop-color="#F7DD43"/>
<stop offset="1" stop-color="#F7DD43" stop-opacity="0"/>
</linearGradient>
<linearGradient id="paint14_linear_122_130" x1="-20.5" y1="278" x2="-20.5" y2="589.381" gradientUnits="userSpaceOnUse">
<stop stop-color="#F7DD43"/>
<stop offset="1" stop-color="#F7DD43" stop-opacity="0"/>
</linearGradient>
<linearGradient id="paint15_linear_122_130" x1="-20.5" y1="278" x2="-20.5" y2="589.381" gradientUnits="userSpaceOnUse">
<stop stop-color="#F7DD43"/>
<stop offset="1" stop-color="#F7DD43" stop-opacity="0"/>
</linearGradient>
<linearGradient id="paint16_linear_122_130" x1="-20.5" y1="278" x2="-20.5" y2="589.381" gradientUnits="userSpaceOnUse">
<stop stop-color="#F7DD43"/>
<stop offset="1" stop-color="#F7DD43" stop-opacity="0"/>
</linearGradient>
<linearGradient id="paint17_linear_122_130" x1="-20.5" y1="278" x2="-20.5" y2="589.381" gradientUnits="userSpaceOnUse">
<stop stop-color="#F7DD43"/>
<stop offset="1" stop-color="#F7DD43" stop-opacity="0"/>
</linearGradient>
<linearGradient id="paint18_linear_122_130" x1="-20.5" y1="278" x2="-20.5" y2="589.381" gradientUnits="userSpaceOnUse">
<stop stop-color="#F7DD43"/>
<stop offset="1" stop-color="#F7DD43" stop-opacity="0"/>
</linearGradient>
<linearGradient id="paint19_linear_122_130" x1="-20.5" y1="278" x2="-20.5" y2="589.381" gradientUnits="userSpaceOnUse">
<stop stop-color="#F7DD43"/>
<stop offset="1" stop-color="#F7DD43" stop-opacity="0"/>
</linearGradient>
<linearGradient id="paint20_linear_122_130" x1="-20.5" y1="278" x2="-20.5" y2="589.381" gradientUnits="userSpaceOnUse">
<stop stop-color="#F7DD43"/>
<stop offset="1" stop-color="#F7DD43" stop-opacity="0"/>
</linearGradient>
<linearGradient id="paint21_linear_122_130" x1="-20.5" y1="278" x2="-20.5" y2="589.381" gradientUnits="userSpaceOnUse">
<stop stop-color="#F7DD43"/>
<stop offset="1" stop-color="#F7DD43" stop-opacity="0"/>
</linearGradient>
<linearGradient id="paint22_linear_122_130" x1="-20.5" y1="278" x2="-20.5" y2="589.381" gradientUnits="userSpaceOnUse">
<stop stop-color="#F7DD43"/>
<stop offset="1" stop-color="#F7DD43" stop-opacity="0"/>
</linearGradient>
<linearGradient id="paint23_linear_122_130" x1="-20.5" y1="278" x2="-20.5" y2="589.381" gradientUnits="userSpaceOnUse">
<stop stop-color="#F7DD43"/>
<stop offset="1" stop-color="#F7DD43" stop-opacity="0"/>
</linearGradient>
<linearGradient id="paint24_linear_122_130" x1="-20.5" y1="278" x2="-20.5" y2="589.381" gradientUnits="userSpaceOnUse">
<stop stop-color="#F7DD43"/>
<stop offset="1" stop-color="#F7DD43" stop-opacity="0"/>
</linearGradient>
<linearGradient id="paint25_linear_122_130" x1="-20.5" y1="278" x2="-20.5" y2="589.381" gradientUnits="userSpaceOnUse">
<stop stop-color="#F7DD43"/>
<stop offset="1" stop-color="#F7DD43" stop-opacity="0"/>
</linearGradient>
<linearGradient id="paint26_linear_122_130" x1="-20.5" y1="278" x2="-20.5" y2="589.381" gradientUnits="userSpaceOnUse">
<stop stop-color="#F7DD43"/>
<stop offset="1" stop-color="#F7DD43" stop-opacity="0"/>
</linearGradient>
<linearGradient id="paint27_linear_122_130" x1="-20.5" y1="278" x2="-20.5" y2="589.381" gradientUnits="userSpaceOnUse">
<stop stop-color="#F7DD43"/>
<stop offset="1" stop-color="#F7DD43" stop-opacity="0"/>
</linearGradient>
<linearGradient id="paint28_linear_122_130" x1="-20.5" y1="278" x2="-20.5" y2="589.381" gradientUnits="userSpaceOnUse">
<stop stop-color="#F7DD43"/>
<stop offset="1" stop-color="#F7DD43" stop-opacity="0"/>
</linearGradient>
<linearGradient id="paint29_linear_122_130" x1="-20.5" y1="278" x2="-20.5" y2="589.381" gradientUnits="userSpaceOnUse">
<stop stop-color="#F7DD43"/>
<stop offset="1" stop-color="#F7DD43" stop-opacity="0"/>
</linearGradient>
<linearGradient id="paint30_linear_122_130" x1="-20.5" y1="278" x2="-20.5" y2="589.381" gradientUnits="userSpaceOnUse">
<stop stop-color="#F7DD43"/>
<stop offset="1" stop-color="#F7DD43" stop-opacity="0"/>
</linearGradient>
<linearGradient id="paint31_linear_122_130" x1="-20.5" y1="278" x2="-20.5" y2="589.381" gradientUnits="userSpaceOnUse">
<stop stop-color="#F7DD43"/>
<stop offset="1" stop-color="#F7DD43" stop-opacity="0"/>
</linearGradient>
<linearGradient id="paint32_linear_122_130" x1="-20.5" y1="278" x2="-20.5" y2="589.381" gradientUnits="userSpaceOnUse">
<stop stop-color="#F7DD43"/>
<stop offset="1" stop-color="#F7DD43" stop-opacity="0"/>
</linearGradient>
<linearGradient id="paint33_linear_122_130" x1="-20.5" y1="278" x2="-20.5" y2="589.381" gradientUnits="userSpaceOnUse">
<stop stop-color="#F7DD43"/>
<stop offset="1" stop-color="#F7DD43" stop-opacity="0"/>
</linearGradient>
<linearGradient id="paint34_linear_122_130" x1="-20.5" y1="278" x2="-20.5" y2="589.381" gradientUnits="userSpaceOnUse">
<stop stop-color="#F7DD43"/>
<stop offset="1" stop-color="#F7DD43" stop-opacity="0"/>
</linearGradient>
<linearGradient id="paint35_linear_122_130" x1="-20.5" y1="278" x2="-20.5" y2="589.381" gradientUnits="userSpaceOnUse">
<stop stop-color="#F7DD43"/>
<stop offset="1" stop-color="#F7DD43" stop-opacity="0"/>
</linearGradient>
<linearGradient id="paint36_linear_122_130" x1="-20.5" y1="278" x2="-20.5" y2="589.381" gradientUnits="userSpaceOnUse">
<stop stop-color="#F7DD43"/>
<stop offset="1" stop-color="#F7DD43" stop-opacity="0"/>
</linearGradient>
<linearGradient id="paint37_linear_122_130" x1="-20.5" y1="278" x2="-20.5" y2="589.381" gradientUnits="userSpaceOnUse">
<stop stop-color="#F7DD43"/>
<stop offset="1" stop-color="#F7DD43" stop-opacity="0"/>
</linearGradient>
<linearGradient id="paint38_linear_122_130" x1="-20.5" y1="278" x2="-20.5" y2="589.381" gradientUnits="userSpaceOnUse">
<stop stop-color="#F7DD43"/>
<stop offset="1" stop-color="#F7DD43" stop-opacity="0"/>
</linearGradient>
<linearGradient id="paint39_linear_122_130" x1="-20.5" y1="278" x2="-20.5" y2="589.381" gradientUnits="userSpaceOnUse">
<stop stop-color="#F7DD43"/>
<stop offset="1" stop-color="#F7DD43" stop-opacity="0"/>
</linearGradient>
<linearGradient id="paint40_linear_122_130" x1="-20.5" y1="278" x2="-20.5" y2="589.381" gradientUnits="userSpaceOnUse">
<stop stop-color="#F7DD43"/>
<stop offset="1" stop-color="#F7DD43" stop-opacity="0"/>
</linearGradient>
<linearGradient id="paint41_linear_122_130" x1="-20.5" y1="278" x2="-20.5" y2="589.381" gradientUnits="userSpaceOnUse">
<stop stop-color="#F7DD43"/>
<stop offset="1" stop-color="#F7DD43" stop-opacity="0"/>
</linearGradient>
<linearGradient id="paint42_linear_122_130" x1="-20.5" y1="278" x2="-20.5" y2="589.381" gradientUnits="userSpaceOnUse">
<stop stop-color="#F7DD43"/>
<stop offset="1" stop-color="#F7DD43" stop-opacity="0"/>
</linearGradient>
<linearGradient id="paint43_linear_122_130" x1="-20.5" y1="278" x2="-20.5" y2="589.381" gradientUnits="userSpaceOnUse">
<stop stop-color="#F7DD43"/>
<stop offset="1" stop-color="#F7DD43" stop-opacity="0"/>
</linearGradient>
<linearGradient id="paint44_linear_122_130" x1="-20.5" y1="278" x2="-20.5" y2="589.381" gradientUnits="userSpaceOnUse">
<stop stop-color="#F7DD43"/>
<stop offset="1" stop-color="#F7DD43" stop-opacity="0"/>
</linearGradient>
<linearGradient id="paint45_linear_122_130" x1="-20.5" y1="278" x2="-20.5" y2="589.381" gradientUnits="userSpaceOnUse">
<stop stop-color="#F7DD43"/>
<stop offset="1" stop-color="#F7DD43" stop-opacity="0"/>
</linearGradient>
<linearGradient id="paint46_linear_122_130" x1="-20.5" y1="278" x2="-20.5" y2="589.381" gradientUnits="userSpaceOnUse">
<stop stop-color="#F7DD43"/>
<stop offset="1" stop-color="#F7DD43" stop-opacity="0"/>
</linearGradient>
<linearGradient id="paint47_linear_122_130" x1="865.5" y1="-22" x2="865.5" y2="276.818" gradientUnits="userSpaceOnUse">
<stop stop-color="#F7DD43"/>
<stop offset="1" stop-color="#F7DD43" stop-opacity="0"/>
</linearGradient>
<linearGradient id="paint48_linear_122_130" x1="865.5" y1="-22" x2="865.5" y2="276.818" gradientUnits="userSpaceOnUse">
<stop stop-color="#F7DD43"/>
<stop offset="1" stop-color="#F7DD43" stop-opacity="0"/>
</linearGradient>
<linearGradient id="paint49_linear_122_130" x1="865.5" y1="-22" x2="865.5" y2="276.818" gradientUnits="userSpaceOnUse">
<stop stop-color="#F7DD43"/>
<stop offset="1" stop-color="#F7DD43" stop-opacity="0"/>
</linearGradient>
<linearGradient id="paint50_linear_122_130" x1="865.5" y1="-22" x2="865.5" y2="276.818" gradientUnits="userSpaceOnUse">
<stop stop-color="#F7DD43"/>
<stop offset="1" stop-color="#F7DD43" stop-opacity="0"/>
</linearGradient>
<linearGradient id="paint51_linear_122_130" x1="865.5" y1="-22" x2="865.5" y2="276.818" gradientUnits="userSpaceOnUse">
<stop stop-color="#F7DD43"/>
<stop offset="1" stop-color="#F7DD43" stop-opacity="0"/>
</linearGradient>
<linearGradient id="paint52_linear_122_130" x1="865.5" y1="-22" x2="865.5" y2="276.818" gradientUnits="userSpaceOnUse">
<stop stop-color="#F7DD43"/>
<stop offset="1" stop-color="#F7DD43" stop-opacity="0"/>
</linearGradient>
<linearGradient id="paint53_linear_122_130" x1="865.5" y1="-22" x2="865.5" y2="276.818" gradientUnits="userSpaceOnUse">
<stop stop-color="#F7DD43"/>
<stop offset="1" stop-color="#F7DD43" stop-opacity="0"/>
</linearGradient>
<linearGradient id="paint54_linear_122_130" x1="865.5" y1="-22" x2="865.5" y2="276.818" gradientUnits="userSpaceOnUse">
<stop stop-color="#F7DD43"/>
<stop offset="1" stop-color="#F7DD43" stop-opacity="0"/>
</linearGradient>
<linearGradient id="paint55_linear_122_130" x1="865.5" y1="-22" x2="865.5" y2="276.818" gradientUnits="userSpaceOnUse">
<stop stop-color="#F7DD43"/>
<stop offset="1" stop-color="#F7DD43" stop-opacity="0"/>
</linearGradient>
<linearGradient id="paint56_linear_122_130" x1="865.5" y1="-22" x2="865.5" y2="276.818" gradientUnits="userSpaceOnUse">
<stop stop-color="#F7DD43"/>
<stop offset="1" stop-color="#F7DD43" stop-opacity="0"/>
</linearGradient>
<linearGradient id="paint57_linear_122_130" x1="865.5" y1="-22" x2="865.5" y2="276.818" gradientUnits="userSpaceOnUse">
<stop stop-color="#F7DD43"/>
<stop offset="1" stop-color="#F7DD43" stop-opacity="0"/>
</linearGradient>
<linearGradient id="paint58_linear_122_130" x1="865.5" y1="-22" x2="865.5" y2="276.818" gradientUnits="userSpaceOnUse">
<stop stop-color="#F7DD43"/>
<stop offset="1" stop-color="#F7DD43" stop-opacity="0"/>
</linearGradient>
<linearGradient id="paint59_linear_122_130" x1="865.5" y1="-22" x2="865.5" y2="276.818" gradientUnits="userSpaceOnUse">
<stop stop-color="#F7DD43"/>
<stop offset="1" stop-color="#F7DD43" stop-opacity="0"/>
</linearGradient>
<linearGradient id="paint60_linear_122_130" x1="865.5" y1="-22" x2="865.5" y2="276.818" gradientUnits="userSpaceOnUse">
<stop stop-color="#F7DD43"/>
<stop offset="1" stop-color="#F7DD43" stop-opacity="0"/>
</linearGradient>
<linearGradient id="paint61_linear_122_130" x1="865.5" y1="-22" x2="865.5" y2="276.818" gradientUnits="userSpaceOnUse">
<stop stop-color="#F7DD43"/>
<stop offset="1" stop-color="#F7DD43" stop-opacity="0"/>
</linearGradient>
<linearGradient id="paint62_linear_122_130" x1="865.5" y1="-22" x2="865.5" y2="276.818" gradientUnits="userSpaceOnUse">
<stop stop-color="#F7DD43"/>
<stop offset="1" stop-color="#F7DD43" stop-opacity="0"/>
</linearGradient>
<linearGradient id="paint63_linear_122_130" x1="865.5" y1="-22" x2="865.5" y2="276.818" gradientUnits="userSpaceOnUse">
<stop stop-color="#F7DD43"/>
<stop offset="1" stop-color="#F7DD43" stop-opacity="0"/>
</linearGradient>
<linearGradient id="paint64_linear_122_130" x1="865.5" y1="-22" x2="865.5" y2="276.818" gradientUnits="userSpaceOnUse">
<stop stop-color="#F7DD43"/>
<stop offset="1" stop-color="#F7DD43" stop-opacity="0"/>
</linearGradient>
<linearGradient id="paint65_linear_122_130" x1="865.5" y1="-22" x2="865.5" y2="276.818" gradientUnits="userSpaceOnUse">
<stop stop-color="#F7DD43"/>
<stop offset="1" stop-color="#F7DD43" stop-opacity="0"/>
</linearGradient>
<linearGradient id="paint66_linear_122_130" x1="865.5" y1="-22" x2="865.5" y2="276.818" gradientUnits="userSpaceOnUse">
<stop stop-color="#F7DD43"/>
<stop offset="1" stop-color="#F7DD43" stop-opacity="0"/>
</linearGradient>
<linearGradient id="paint67_linear_122_130" x1="865.5" y1="-22" x2="865.5" y2="276.818" gradientUnits="userSpaceOnUse">
<stop stop-color="#F7DD43"/>
<stop offset="1" stop-color="#F7DD43" stop-opacity="0"/>
</linearGradient>
<linearGradient id="paint68_linear_122_130" x1="865.5" y1="-22" x2="865.5" y2="276.818" gradientUnits="userSpaceOnUse">
<stop stop-color="#F7DD43"/>
<stop offset="1" stop-color="#F7DD43" stop-opacity="0"/>
</linearGradient>
<linearGradient id="paint69_linear_122_130" x1="865.5" y1="-22" x2="865.5" y2="276.818" gradientUnits="userSpaceOnUse">
<stop stop-color="#F7DD43"/>
<stop offset="1" stop-color="#F7DD43" stop-opacity="0"/>
</linearGradient>
<linearGradient id="paint70_linear_122_130" x1="865.5" y1="-22" x2="865.5" y2="276.818" gradientUnits="userSpaceOnUse">
<stop stop-color="#F7DD43"/>
<stop offset="1" stop-color="#F7DD43" stop-opacity="0"/>
</linearGradient>
<linearGradient id="paint71_linear_122_130" x1="865.5" y1="-22" x2="865.5" y2="276.818" gradientUnits="userSpaceOnUse">
<stop stop-color="#F7DD43"/>
<stop offset="1" stop-color="#F7DD43" stop-opacity="0"/>
</linearGradient>
<linearGradient id="paint72_linear_122_130" x1="865.5" y1="-22" x2="865.5" y2="276.818" gradientUnits="userSpaceOnUse">
<stop stop-color="#F7DD43"/>
<stop offset="1" stop-color="#F7DD43" stop-opacity="0"/>
</linearGradient>
<linearGradient id="paint73_linear_122_130" x1="865.5" y1="-22" x2="865.5" y2="276.818" gradientUnits="userSpaceOnUse">
<stop stop-color="#F7DD43"/>
<stop offset="1" stop-color="#F7DD43" stop-opacity="0"/>
</linearGradient>
<linearGradient id="paint74_linear_122_130" x1="865.5" y1="-22" x2="865.5" y2="276.818" gradientUnits="userSpaceOnUse">
<stop stop-color="#F7DD43"/>
<stop offset="1" stop-color="#F7DD43" stop-opacity="0"/>
</linearGradient>
<linearGradient id="paint75_linear_122_130" x1="865.5" y1="-22" x2="865.5" y2="276.818" gradientUnits="userSpaceOnUse">
<stop stop-color="#F7DD43"/>
<stop offset="1" stop-color="#F7DD43" stop-opacity="0"/>
</linearGradient>
<linearGradient id="paint76_linear_122_130" x1="865.5" y1="-22" x2="865.5" y2="276.818" gradientUnits="userSpaceOnUse">
<stop stop-color="#F7DD43"/>
<stop offset="1" stop-color="#F7DD43" stop-opacity="0"/>
</linearGradient>
<linearGradient id="paint77_linear_122_130" x1="865.5" y1="-22" x2="865.5" y2="276.818" gradientUnits="userSpaceOnUse">
<stop stop-color="#F7DD43"/>
<stop offset="1" stop-color="#F7DD43" stop-opacity="0"/>
</linearGradient>
<linearGradient id="paint78_linear_122_130" x1="865.5" y1="-22" x2="865.5" y2="276.818" gradientUnits="userSpaceOnUse">
<stop stop-color="#F7DD43"/>
<stop offset="1" stop-color="#F7DD43" stop-opacity="0"/>
</linearGradient>
<linearGradient id="paint79_linear_122_130" x1="865.5" y1="-22" x2="865.5" y2="276.818" gradientUnits="userSpaceOnUse">
<stop stop-color="#F7DD43"/>
<stop offset="1" stop-color="#F7DD43" stop-opacity="0"/>
</linearGradient>
<linearGradient id="paint80_linear_122_130" x1="865.5" y1="-22" x2="865.5" y2="276.818" gradientUnits="userSpaceOnUse">
<stop stop-color="#F7DD43"/>
<stop offset="1" stop-color="#F7DD43" stop-opacity="0"/>
</linearGradient>
<linearGradient id="paint81_linear_122_130" x1="865.5" y1="-22" x2="865.5" y2="276.818" gradientUnits="userSpaceOnUse">
<stop stop-color="#F7DD43"/>
<stop offset="1" stop-color="#F7DD43" stop-opacity="0"/>
</linearGradient>
<linearGradient id="paint82_linear_122_130" x1="865.5" y1="-22" x2="865.5" y2="276.818" gradientUnits="userSpaceOnUse">
<stop stop-color="#F7DD43"/>
<stop offset="1" stop-color="#F7DD43" stop-opacity="0"/>
</linearGradient>
<linearGradient id="paint83_linear_122_130" x1="865.5" y1="-22" x2="865.5" y2="276.818" gradientUnits="userSpaceOnUse">
<stop stop-color="#F7DD43"/>
<stop offset="1" stop-color="#F7DD43" stop-opacity="0"/>
</linearGradient>
<linearGradient id="paint84_linear_122_130" x1="865.5" y1="-22" x2="865.5" y2="276.818" gradientUnits="userSpaceOnUse">
<stop stop-color="#F7DD43"/>
<stop offset="1" stop-color="#F7DD43" stop-opacity="0"/>
</linearGradient>
<linearGradient id="paint85_linear_122_130" x1="865.5" y1="-22" x2="865.5" y2="276.818" gradientUnits="userSpaceOnUse">
<stop stop-color="#F7DD43"/>
<stop offset="1" stop-color="#F7DD43" stop-opacity="0"/>
</linearGradient>
<linearGradient id="paint86_linear_122_130" x1="865.5" y1="-22" x2="865.5" y2="276.818" gradientUnits="userSpaceOnUse">
<stop stop-color="#F7DD43"/>
<stop offset="1" stop-color="#F7DD43" stop-opacity="0"/>
</linearGradient>
<linearGradient id="paint87_linear_122_130" x1="865.5" y1="-22" x2="865.5" y2="276.818" gradientUnits="userSpaceOnUse">
<stop stop-color="#F7DD43"/>
<stop offset="1" stop-color="#F7DD43" stop-opacity="0"/>
</linearGradient>
<linearGradient id="paint88_linear_122_130" x1="865.5" y1="-22" x2="865.5" y2="276.818" gradientUnits="userSpaceOnUse">
<stop stop-color="#F7DD43"/>
<stop offset="1" stop-color="#F7DD43" stop-opacity="0"/>
</linearGradient>
<linearGradient id="paint89_linear_122_130" x1="865.5" y1="-22" x2="865.5" y2="276.818" gradientUnits="userSpaceOnUse">
<stop stop-color="#F7DD43"/>
<stop offset="1" stop-color="#F7DD43" stop-opacity="0"/>
</linearGradient>
<linearGradient id="paint90_linear_122_130" x1="865.5" y1="-22" x2="865.5" y2="276.818" gradientUnits="userSpaceOnUse">
<stop stop-color="#F7DD43"/>
<stop offset="1" stop-color="#F7DD43" stop-opacity="0"/>
</linearGradient>
<linearGradient id="paint91_linear_122_130" x1="865.5" y1="-22" x2="865.5" y2="276.818" gradientUnits="userSpaceOnUse">
<stop stop-color="#F7DD43"/>
<stop offset="1" stop-color="#F7DD43" stop-opacity="0"/>
</linearGradient>
<linearGradient id="paint92_linear_122_130" x1="865.5" y1="-22" x2="865.5" y2="276.818" gradientUnits="userSpaceOnUse">
<stop stop-color="#F7DD43"/>
<stop offset="1" stop-color="#F7DD43" stop-opacity="0"/>
</linearGradient>
<linearGradient id="paint93_linear_122_130" x1="865.5" y1="-22" x2="865.5" y2="276.818" gradientUnits="userSpaceOnUse">
<stop stop-color="#F7DD43"/>
<stop offset="1" stop-color="#F7DD43" stop-opacity="0"/>
</linearGradient>
<clipPath id="clip0_122_130">
<rect width="1024" height="753" fill="white"/>
</clipPath>
</defs>
</svg>
